<?xml version="1.0" encoding="utf-8"?>
<!-- Generator: Adobe Illustrator 23.0.1, SVG Export Plug-In . SVG Version: 6.00 Build 0)  -->
<svg version="1.1" id="Layer_1" xmlns="http://www.w3.org/2000/svg" xmlns:xlink="http://www.w3.org/1999/xlink" x="0px" y="0px"
	 viewBox="0 0 78 55" style="enable-background:new 0 0 78 55;" xml:space="preserve">
<style type="text/css">
	.st0{fill:#6c1cd3;}
	.st1{fill:none;}
	.st2{fill:#FFFFFF;}
</style>
<path class="st0" d="M77.9,50c0,2.8-2.2,5-5,5h-68c-2.8,0-5-2.2-5-5V5c0-2.8,2.2-5,5-5h68c2.8,0,5,2.2,5,5V50z"/>
<rect x="8" y="39.5" class="st1" width="42.5" height="10.9"/>
<rect x="-26" y="11.8" class="st1" width="118" height="31.4"/>
<g transform="translate(0,633) scale(0.1,-0.1)">
	<path id="path6" class="st2" d="M128.4,6152.5l-59.3,0.5l0-39.3h98.2L65.3,5982.9v-33.3h63.1v-38.3h37.9v38.3h64.4
		c0.5,1.5,0.7,5.7-2.7,9.5c-5.7,6.3-10.2,12.9-14.3,21.2c-1.9,3.7-3.3,8.1-3.9,8.5c-12.7,0.6-85.6,0.4-85.6,0.9l102.2,131.6v31.2
		h-60.1v38.8h-37.9V6152.5z"/>
	<path id="path8" class="st2" d="M401.9,6170.8c-0.9-0.4-1.2-20.3-1.2-95.8c0-102-0.1-100.3,4.4-109c4.1-7.8,14-14.9,25.1-17.8
		c6.1-1.6,24.2-1.8,31.1-0.4c8.9,1.9,10.6,4.6,7.1,11.5c-2.3,4.3-5.2,13.8-6,19c-1,6.2-2.3,7.2-9.8,7c-3.6-0.1-7,0.2-7.7,0.5
		c-3.7,2.3-3.7,3-3.7,94.3c0,58.7-0.3,88.2-0.9,89.4c-0.9,1.6-2.1,1.7-19.2,1.6C411.2,6171.4,402.5,6171.1,401.9,6170.8z"/>
	<path id="path10" class="st2" d="M484.6,6170.5c-1.2-0.7-1.4-12.3-1.4-94.9c0-89,0.1-94.4,1.7-100.6c3.1-12.3,10-19.7,23.2-25.2
		c5-2.1,7.3-2.4,17.5-2.7c13.6-0.4,20.6,0.6,27.5,4.1c6.9,3.3,7,5.7,1.2,14.2c-2.3,3.4-6,9.3-7.9,13l-3.6,6.8l-6.6,0.1
		c-8.2,0.2-9,0.5-10.6,4.4c-1.2,2.6-1.4,16.1-1.4,90.6c0,58.7-0.3,88.2-0.9,89.4c-0.9,1.6-2.1,1.7-19.2,1.7
		C494.2,6171.4,485.3,6171,484.6,6170.5z"/>
	<path id="path16" class="st2" d="M288.5,6114.2c-0.5-0.2-4-1-7.7-1.8c-23.2-5.3-43.6-23.1-52.3-45.6c-4.8-12.4-6.5-22.1-6.6-36.4
		c-0.1-20.1,4-34.9,13.3-49c10.5-15.8,25.8-26.5,45.6-31.9c6.8-1.8,9.7-2.1,25.2-2.1c15.3,0,18.5,0.3,24.9,2
		c15.9,4.4,29.4,11.7,40.3,22.1c6.9,6.5,6.9,8.3-0.2,13.7c-2.9,2.3-8.1,7.1-11.5,10.9c-4.3,4.6-6.9,6.8-8.3,6.8
		c-1.3,0-4.1-1.8-6.9-4.5c-9.6-8.7-21.8-12.9-37.8-12.8c-14.6,0.1-25.2,3.9-32,11.6c-3.4,3.9-7.8,12.7-8.7,17.7l-0.5,3.3h56.2
		c30.9,0,56.8,0.4,57.4,0.8c3,1.9,3.7,15,1.5,29.2c-5.1,34.1-25.5,57-57.5,64.7c-5.7,1.4-10.4,1.8-20.5,1.7
		C295.2,6114.5,289,6114.4,288.5,6114.2z M312.6,6079.4c6.6-1.4,14.7-5.9,18.5-10.2c3.5-4,7.1-11.1,8-15.7l0.6-2.9h-36.8h-36.7
		l0.6,2.9c2.7,12.2,13.2,22.4,26.2,25.6C298.8,6080.5,306.5,6080.6,312.6,6079.4z"/>
	<path id="path18" class="st2" d="M616.3,6113.4c-32-7.1-53.7-29.7-60.4-62.9c-4.1-19.7-1.8-42.6,5.9-59
		c10.5-22.7,29.5-37.4,55.5-42.7c8.2-1.7,11.5-1.9,24.3-1.5c10.9,0.4,16.8,1,21.8,2.3c15.4,4.1,28.9,11.5,39.3,21.4
		c7.9,7.7,7.9,8-0.6,15.1c-4,3.2-9.3,8.4-11.8,11.4c-5.9,6.8-7.4,6.9-14,0.9c-9.8-8.9-21.6-12.9-37.9-12.8
		c-22.9,0.1-36.3,9.9-40.6,29.8l-0.6,2.3h114.3c3.9,2.8,2.4,32.4-2.3,46.1c-0.9,2.7-3.3,8.1-5.3,11.9
		c-10.6,20.2-27.4,32.7-50.9,37.7C645.5,6114.9,623.4,6114.9,616.3,6113.4z M644.4,6079.4c6.1-1.4,12.4-4.5,17-8.6
		c3.8-3.5,9.9-14.6,9.9-18v-2.2h-73.2l0.6,2.5C603.4,6072.4,623.2,6083.9,644.4,6079.4z"/>
</g>
</svg>
